# xmcd
#
# Track frame offsets:
#	182
#	13165
#	31095
#	48587
#	66190
#	81880
#	96905
#	108117
#	125825
#	138877
#	152547
#	164010
#	183412
#	199952
#	213585
#	231702
#	247050
#	260817
#
# Disc length: 3690
#
# Revision: 2
# Processed by: cddbd v1.5.1PL0 Copyright (c) Steve Scherf et al.
# Submitted via: VisiTrax 2.9.5.180 - For more info visit www.synapsa.com
# Normalized: r1:DSETVAR1
#
DISCID=0f0e6812
DTITLE=Various Artist - Country Jukebox [CD1]
DYEAR=1998
DGENRE=Country
TTITLE0=Alan Jackson - Don't Rock The Jukebox
TTITLE1=Bryan White - Rebecca Lynn
TTITLE2=Diamond Rio - Walkin' Away
TTITLE3=Faith Hill - You Can't Loes Me
TTITLE4=Kevin Sharp - Nobody Knows
TTITLE5=Sawyer Brown - Thank God For You
TTITLE6=Tracy Lawrence - If The Good Die Young
TTITLE7=Brady Seals - Another You, Another Me
TTITLE8=Pam Tillis - Mi Vida Loca
TTITLE9=David Ball - Thinkin' Problem
TTITLE10=Tracy Byrd - Holdin' Heaven
TTITLE11=Alison Krauss and Union Station - When You Say Nothing At All
TTITLE12=Paul Brandt - I Do
TTITLE13=Trace Adkins - Every Light In The Hosue
TTITLE14=Travis Tritt - Help Me Hold On
TTITLE15=Sammy Kershaw - Third Rate Romance
TTITLE16=Regina Regina - Asking For The Moon
TTITLE17=Neal McCoy - The City Put The Country Back In Me
EXTD=
EXTT0=
EXTT1=
EXTT2=
EXTT3=
EXTT4=
EXTT5=
EXTT6=
EXTT7=
EXTT8=
EXTT9=
EXTT10=
EXTT11=
EXTT12=
EXTT13=
EXTT14=
EXTT15=
EXTT16=
EXTT17=
PLAYORDER=
